# Blender 4.0.2
# www.blender.org
mtllib npbv2_map.mtl
o Cube
v 26.912771 -0.077591 -38.797256
v 26.912771 0.077591 -38.797256
v 26.912771 -0.077591 37.007004
v 26.912771 0.077591 37.007004
v -26.912771 -0.077591 -38.797256
v -26.912771 0.077591 -38.797256
v -26.912771 -0.077591 37.007004
v -26.912771 0.077591 37.007004
vn -0.0000 -1.0000 -0.0000
vn -0.0000 -0.0000 1.0000
vn -1.0000 -0.0000 -0.0000
vn -0.0000 1.0000 -0.0000
vn 1.0000 -0.0000 -0.0000
vn -0.0000 -0.0000 -1.0000
vt 0.625000 0.500000
vt 0.875000 0.500000
vt 0.875000 0.750000
vt 0.625000 0.750000
vt 0.375000 0.750000
vt 0.625000 1.000000
vt 0.375000 1.000000
vt 0.375000 0.000000
vt 0.625000 0.000000
vt 0.625000 0.250000
vt 0.375000 0.250000
vt 0.125000 0.500000
vt 0.375000 0.500000
vt 0.125000 0.750000
s 0
usemtl Material
f 1/1/1 3/4/1 7/3/1 5/2/1
f 4/5/2 8/7/2 7/6/2 3/4/2
f 8/8/3 6/11/3 5/10/3 7/9/3
f 6/12/4 8/14/4 4/5/4 2/13/4
f 2/13/5 4/5/5 3/4/5 1/1/5
f 6/11/6 2/13/6 1/1/6 5/10/6
o Cube.001
v 25.869801 -18.869022 -38.776211
v 26.024982 -18.868767 -38.776211
v 25.869801 -18.869022 37.028049
v 26.024982 -18.868767 37.028049
v 25.781391 34.956448 -38.776211
v 25.936573 34.956703 -38.776211
v 25.781391 34.956448 37.028049
v 25.936573 34.956703 37.028049
vn -1.0000 -0.0016 -0.0000
vn -0.0000 -0.0000 1.0000
vn -0.0016 1.0000 -0.0000
vn 1.0000 0.0016 -0.0000
vn 0.0016 -1.0000 -0.0000
vn -0.0000 -0.0000 -1.0000
vt 0.625000 0.500000
vt 0.875000 0.500000
vt 0.875000 0.750000
vt 0.625000 0.750000
vt 0.375000 0.750000
vt 0.625000 1.000000
vt 0.375000 1.000000
vt 0.375000 0.000000
vt 0.625000 0.000000
vt 0.625000 0.250000
vt 0.375000 0.250000
vt 0.125000 0.500000
vt 0.375000 0.500000
vt 0.125000 0.750000
s 0
usemtl Material
f 9/15/7 11/18/7 15/17/7 13/16/7
f 12/19/8 16/21/8 15/20/8 11/18/8
f 16/22/9 14/25/9 13/24/9 15/23/9
f 14/26/10 16/28/10 12/19/10 10/27/10
f 10/27/11 12/19/11 11/18/11 9/15/11
f 14/25/12 10/27/12 9/15/12 13/24/12
o Cube.002
v -26.960716 -18.766613 36.597137
v -26.961418 -18.766357 36.441956
v 29.935566 -18.766613 36.339470
v 29.934864 -18.766357 36.184288
v -26.960316 35.058857 36.685547
v -26.961018 35.059113 36.530365
v 29.935966 35.058857 36.427879
v 29.935265 35.059113 36.272697
vn 0.0045 -0.0016 1.0000
vn 1.0000 -0.0000 -0.0045
vn -0.0000 1.0000 0.0016
vn -0.0045 0.0016 -1.0000
vn -0.0000 -1.0000 -0.0016
vn -1.0000 -0.0000 0.0045
vt 0.625000 0.500000
vt 0.875000 0.500000
vt 0.875000 0.750000
vt 0.625000 0.750000
vt 0.375000 0.750000
vt 0.625000 1.000000
vt 0.375000 1.000000
vt 0.375000 0.000000
vt 0.625000 0.000000
vt 0.625000 0.250000
vt 0.375000 0.250000
vt 0.125000 0.500000
vt 0.375000 0.500000
vt 0.125000 0.750000
s 0
usemtl Material
f 17/29/13 19/32/13 23/31/13 21/30/13
f 20/33/14 24/35/14 23/34/14 19/32/14
f 24/36/15 22/39/15 21/38/15 23/37/15
f 22/40/16 24/42/16 20/33/16 18/41/16
f 18/41/17 20/33/17 19/32/17 17/29/17
f 22/39/18 18/41/18 17/29/18 21/38/18
o Cube.003
v 68.737488 -20.871241 178.326691
v 68.892670 -20.870985 178.326691
v 68.737488 -20.871241 254.130951
v 68.892670 -20.870985 254.130951
v 68.649078 32.954231 178.326691
v 68.804260 32.954483 178.326691
v 68.649078 32.954231 254.130951
v 68.804260 32.954483 254.130951
vn -1.0000 -0.0016 -0.0000
vn -0.0000 -0.0000 1.0000
vn -0.0016 1.0000 -0.0000
vn 1.0000 0.0016 -0.0000
vn 0.0016 -1.0000 -0.0000
vn -0.0000 -0.0000 -1.0000
vt 0.625000 0.500000
vt 0.875000 0.500000
vt 0.875000 0.750000
vt 0.625000 0.750000
vt 0.375000 0.750000
vt 0.625000 1.000000
vt 0.375000 1.000000
vt 0.375000 0.000000
vt 0.625000 0.000000
vt 0.625000 0.250000
vt 0.375000 0.250000
vt 0.125000 0.500000
vt 0.375000 0.500000
vt 0.125000 0.750000
s 0
usemtl Material
f 25/43/19 27/46/19 31/45/19 29/44/19
f 28/47/20 32/49/20 31/48/20 27/46/20
f 32/50/21 30/53/21 29/52/21 31/51/21
f 30/54/22 32/56/22 28/47/22 26/55/22
f 26/55/23 28/47/23 27/46/23 25/43/23
f 30/53/24 26/55/24 25/43/24 29/52/24
o Cube.004
v -25.388584 -18.869022 -38.776211
v -25.233402 -18.868767 -38.776211
v -25.388584 -18.869022 37.028049
v -25.233402 -18.868767 37.028049
v -25.476994 34.956448 -38.776211
v -25.321812 34.956703 -38.776211
v -25.476994 34.956448 37.028049
v -25.321812 34.956703 37.028049
vn -1.0000 -0.0016 -0.0000
vn -0.0000 -0.0000 1.0000
vn -0.0016 1.0000 -0.0000
vn 1.0000 0.0016 -0.0000
vn 0.0016 -1.0000 -0.0000
vn -0.0000 -0.0000 -1.0000
vt 0.625000 0.500000
vt 0.875000 0.500000
vt 0.875000 0.750000
vt 0.625000 0.750000
vt 0.375000 0.750000
vt 0.625000 1.000000
vt 0.375000 1.000000
vt 0.375000 0.000000
vt 0.625000 0.000000
vt 0.625000 0.250000
vt 0.375000 0.250000
vt 0.125000 0.500000
vt 0.375000 0.500000
vt 0.125000 0.750000
s 0
usemtl Material
f 33/57/25 35/60/25 39/59/25 37/58/25
f 36/61/26 40/63/26 39/62/26 35/60/26
f 40/64/27 38/67/27 37/66/27 39/65/27
f 38/68/28 40/70/28 36/61/28 34/69/28
f 34/69/29 36/61/29 35/60/29 33/57/29
f 38/67/30 34/69/30 33/57/30 37/66/30
o Cube.005
v -26.960716 -18.766613 -36.841446
v -26.961418 -18.766357 -36.996628
v 29.935566 -18.766613 -37.099113
v 29.934864 -18.766357 -37.254295
v -26.960316 35.058857 -36.753036
v -26.961018 35.059113 -36.908218
v 29.935966 35.058857 -37.010704
v 29.935265 35.059113 -37.165886
vn 0.0045 -0.0016 1.0000
vn 1.0000 -0.0000 -0.0045
vn -0.0000 1.0000 0.0016
vn -0.0045 0.0016 -1.0000
vn -0.0000 -1.0000 -0.0016
vn -1.0000 -0.0000 0.0045
vt 0.625000 0.500000
vt 0.875000 0.500000
vt 0.875000 0.750000
vt 0.625000 0.750000
vt 0.375000 0.750000
vt 0.625000 1.000000
vt 0.375000 1.000000
vt 0.375000 0.000000
vt 0.625000 0.000000
vt 0.625000 0.250000
vt 0.375000 0.250000
vt 0.125000 0.500000
vt 0.375000 0.500000
vt 0.125000 0.750000
s 0
usemtl Material
f 41/71/31 43/74/31 47/73/31 45/72/31
f 44/75/32 48/77/32 47/76/32 43/74/32
f 48/78/33 46/81/33 45/80/33 47/79/33
f 46/82/34 48/84/34 44/75/34 42/83/34
f 42/83/35 44/75/35 43/74/35 41/71/35
f 46/81/36 42/83/36 41/71/36 45/80/36
